# xmcd CD database file
#
# Track frame offsets:
#	150
#	12995
#	24695
#	42193
#	57015
#	70123
#	82800
#	96302
#	110333
#	121150
#	142136
#	159670
#	171718
#
# Disc length: 2439 seconds
#
# Revision: 0
# Processed by: cddbd v1.5.2PL0 Copyright (c) Steve Scherf et al.
# Submitted via: ACXtractor (MTCDDB.DLL V2003.07.15)
#
DISCID=ad09850d
DTITLE=The 1969s - The 1969s
DYEAR=2012
DGENRE=Blues
TTITLE0=Where The Stars Are Alone
TTITLE1=You Lookin' So Good I Had To Buy A Suit
TTITLE2=I Been Thinkin'
TTITLE3=I Got A Hankerin'
TTITLE4=And I Will
TTITLE5=Down On Me
TTITLE6=Calamity Jane
TTITLE7=I Been Cut With A Butterknife
TTITLE8=Jabber
TTITLE9=I'm Gonna Build Me A Robot To Do My Dirty Work
TTITLE10=Touch That Dirt
TTITLE11=Fade Away
TTITLE12=Let's Ride
EXTD=ID3G:   0 YEAR: 2012
EXTT0=
EXTT1=
EXTT2=
EXTT3=
EXTT4=
EXTT5=
EXTT6=
EXTT7=
EXTT8=
EXTT9=
EXTT10=
EXTT11=
EXTT12=
PLAYORDER=
